G04 #@! TF.FileFunction,Soldermask,Bot*
%FSLAX46Y46*%
G04 Gerber Fmt 4.6, Leading zero omitted, Abs format (unit mm)*
G04 Created by KiCad (PCBNEW 4.0.7) date 03/03/18 09:37:42*
%MOMM*%
%LPD*%
G01*
G04 APERTURE LIST*
%ADD10C,0.100000*%
%ADD11C,0.150000*%
%ADD12C,3.600000*%
%ADD13C,3.900000*%
%ADD14R,2.000000X2.000000*%
%ADD15C,2.000000*%
%ADD16R,2.400000X2.400000*%
%ADD17C,2.400000*%
%ADD18R,2.600000X2.600000*%
%ADD19O,2.600000X2.600000*%
%ADD20R,2.100000X2.100000*%
%ADD21O,2.100000X2.100000*%
%ADD22R,3.400000X3.400000*%
%ADD23C,3.400000*%
%ADD24C,2.200000*%
%ADD25C,4.400000*%
%ADD26C,2.900000*%
%ADD27O,2.000000X2.000000*%
%ADD28C,2.600000*%
%ADD29C,1.920000*%
%ADD30R,1.920000X1.920000*%
%ADD31R,1.750000X2.200000*%
%ADD32O,1.750000X2.200000*%
%ADD33C,1.900000*%
G04 APERTURE END LIST*
D10*
D11*
X30000000Y-116500000D02*
X30000000Y-30000000D01*
X133000000Y-116500000D02*
X30000000Y-116500000D01*
X133000000Y-30000000D02*
X133000000Y-116500000D01*
X30000000Y-30000000D02*
X133000000Y-30000000D01*
D12*
X38989000Y-98044000D03*
D13*
X105918000Y-70326000D03*
X99918000Y-68326000D03*
X111918000Y-68326000D03*
X99918000Y-56126000D03*
X111918000Y-56126000D03*
D14*
X91694000Y-55245000D03*
D15*
X91694000Y-57745000D03*
D16*
X84074000Y-49276000D03*
D17*
X84074000Y-44276000D03*
D18*
X81534000Y-38100000D03*
D19*
X91694000Y-38100000D03*
D20*
X94107000Y-91186000D03*
D21*
X94107000Y-93726000D03*
X94107000Y-96266000D03*
D20*
X90043000Y-91186000D03*
D21*
X90043000Y-93726000D03*
X90043000Y-96266000D03*
D22*
X100838000Y-34544000D03*
D23*
X105918000Y-34544000D03*
X110998000Y-34544000D03*
D22*
X118618000Y-34544000D03*
D23*
X123698000Y-34544000D03*
X128778000Y-34544000D03*
D22*
X110998000Y-112014000D03*
D23*
X105918000Y-112014000D03*
X100838000Y-112014000D03*
D22*
X128778000Y-112014000D03*
D23*
X123698000Y-112014000D03*
X118618000Y-112014000D03*
D24*
X44069000Y-48006000D03*
X42799000Y-50546000D03*
X41529000Y-48006000D03*
X40259000Y-50546000D03*
X38989000Y-48006000D03*
X37719000Y-50546000D03*
X36449000Y-48006000D03*
X35179000Y-50546000D03*
D25*
X45324000Y-41666000D03*
X33924000Y-41636000D03*
D26*
X47424000Y-44706000D03*
X31824000Y-44706000D03*
D24*
X45924000Y-36766000D03*
X43424000Y-38286000D03*
X33324000Y-38286000D03*
X35824000Y-36766000D03*
D22*
X66548000Y-34544000D03*
D23*
X71628000Y-34544000D03*
X76708000Y-34544000D03*
D22*
X50800000Y-34544000D03*
D23*
X55880000Y-34544000D03*
X60960000Y-34544000D03*
D20*
X78232000Y-102870000D03*
D21*
X78232000Y-105410000D03*
X75692000Y-102870000D03*
X75692000Y-105410000D03*
X73152000Y-102870000D03*
X73152000Y-105410000D03*
X70612000Y-102870000D03*
X70612000Y-105410000D03*
X68072000Y-102870000D03*
X68072000Y-105410000D03*
X65532000Y-102870000D03*
X65532000Y-105410000D03*
X62992000Y-102870000D03*
X62992000Y-105410000D03*
X60452000Y-102870000D03*
X60452000Y-105410000D03*
X57912000Y-102870000D03*
X57912000Y-105410000D03*
X55372000Y-102870000D03*
X55372000Y-105410000D03*
X52832000Y-102870000D03*
X52832000Y-105410000D03*
X50292000Y-102870000D03*
X50292000Y-105410000D03*
D16*
X70358000Y-49276000D03*
D17*
X70358000Y-44276000D03*
D15*
X74930000Y-99060000D03*
D27*
X74930000Y-91440000D03*
D15*
X71374000Y-99060000D03*
D27*
X71374000Y-91440000D03*
D15*
X67818000Y-99060000D03*
D27*
X67818000Y-91440000D03*
D15*
X64262000Y-99060000D03*
D27*
X64262000Y-91440000D03*
D15*
X60706000Y-99060000D03*
D27*
X60706000Y-91440000D03*
D15*
X57150000Y-99060000D03*
D27*
X57150000Y-91440000D03*
D15*
X53594000Y-99060000D03*
D27*
X53594000Y-91440000D03*
D15*
X50038000Y-99060000D03*
D27*
X50038000Y-91440000D03*
D28*
X42926000Y-88900000D03*
X42926000Y-91440000D03*
X40386000Y-88900000D03*
X40386000Y-91440000D03*
X37846000Y-88900000D03*
X37846000Y-91440000D03*
X90932000Y-77343000D03*
X93472000Y-77343000D03*
X90932000Y-79883000D03*
X93472000Y-79883000D03*
X90932000Y-82423000D03*
X93472000Y-82423000D03*
D17*
X86106000Y-105846000D03*
X86106000Y-101346000D03*
X92606000Y-105846000D03*
X92606000Y-101346000D03*
D20*
X94996000Y-110490000D03*
D21*
X94996000Y-113030000D03*
X92456000Y-110490000D03*
X92456000Y-113030000D03*
X89916000Y-110490000D03*
X89916000Y-113030000D03*
X87376000Y-110490000D03*
X87376000Y-113030000D03*
X84836000Y-110490000D03*
X84836000Y-113030000D03*
X82296000Y-110490000D03*
X82296000Y-113030000D03*
X79756000Y-110490000D03*
X79756000Y-113030000D03*
X77216000Y-110490000D03*
X77216000Y-113030000D03*
X74676000Y-110490000D03*
X74676000Y-113030000D03*
X72136000Y-110490000D03*
X72136000Y-113030000D03*
X69596000Y-110490000D03*
X69596000Y-113030000D03*
X67056000Y-110490000D03*
X67056000Y-113030000D03*
X64516000Y-110490000D03*
X64516000Y-113030000D03*
X61976000Y-110490000D03*
X61976000Y-113030000D03*
X59436000Y-110490000D03*
X59436000Y-113030000D03*
X56896000Y-110490000D03*
X56896000Y-113030000D03*
X54356000Y-110490000D03*
X54356000Y-113030000D03*
X51816000Y-110490000D03*
X51816000Y-113030000D03*
X49276000Y-110490000D03*
X49276000Y-113030000D03*
X46736000Y-110490000D03*
X46736000Y-113030000D03*
X44196000Y-110490000D03*
X44196000Y-113030000D03*
X41656000Y-110490000D03*
X41656000Y-113030000D03*
D29*
X100584000Y-45974000D03*
X98044000Y-45974000D03*
D30*
X103124000Y-45974000D03*
D29*
X118364000Y-41656000D03*
X115824000Y-41656000D03*
D30*
X120904000Y-41656000D03*
D14*
X105664000Y-47752000D03*
D27*
X113284000Y-47752000D03*
D14*
X123444000Y-42164000D03*
D27*
X131064000Y-42164000D03*
D13*
X123698000Y-72358000D03*
X117698000Y-70358000D03*
X129698000Y-70358000D03*
X117698000Y-58158000D03*
X129698000Y-58158000D03*
D29*
X100584000Y-100584000D03*
X103124000Y-100584000D03*
D30*
X98044000Y-100584000D03*
D29*
X118364000Y-102108000D03*
X120904000Y-102108000D03*
D30*
X115824000Y-102108000D03*
D14*
X113284000Y-98806000D03*
D27*
X105664000Y-98806000D03*
D13*
X105918000Y-76232000D03*
X111918000Y-78232000D03*
X99918000Y-78232000D03*
X111918000Y-90432000D03*
X99918000Y-90432000D03*
D14*
X131064000Y-100584000D03*
D27*
X123444000Y-100584000D03*
D13*
X123698000Y-78264000D03*
X129698000Y-80264000D03*
X117698000Y-80264000D03*
X129698000Y-92464000D03*
X117698000Y-92464000D03*
D31*
X52832000Y-43942000D03*
D32*
X54532000Y-43942000D03*
X56232000Y-43942000D03*
X57932000Y-43942000D03*
X59632000Y-43942000D03*
D33*
X79883000Y-72517000D03*
X76432319Y-69066319D03*
X48514000Y-57658000D03*
X48514000Y-62538000D03*
D17*
X37012000Y-63754000D03*
X32512000Y-63754000D03*
X37012000Y-57254000D03*
X32512000Y-57254000D03*
D12*
X123952000Y-48006000D03*
M02*
