G04 #@! TF.FileFunction,Paste,Top*
%FSLAX46Y46*%
G04 Gerber Fmt 4.6, Leading zero omitted, Abs format (unit mm)*
G04 Created by KiCad (PCBNEW 4.0.7) date 03/03/18 09:37:42*
%MOMM*%
%LPD*%
G01*
G04 APERTURE LIST*
%ADD10C,0.100000*%
%ADD11C,0.150000*%
%ADD12R,1.000000X2.000000*%
%ADD13R,2.000000X1.000000*%
%ADD14R,1.000000X1.600000*%
%ADD15R,1.600000X1.000000*%
%ADD16R,1.700000X0.900000*%
%ADD17R,0.900000X1.700000*%
%ADD18R,1.750000X0.450000*%
G04 APERTURE END LIST*
D10*
D11*
X30000000Y-116500000D02*
X30000000Y-30000000D01*
X133000000Y-116500000D02*
X30000000Y-116500000D01*
X133000000Y-30000000D02*
X133000000Y-116500000D01*
X30000000Y-30000000D02*
X133000000Y-30000000D01*
D12*
X39116000Y-82804000D03*
X41116000Y-82804000D03*
X43116000Y-82804000D03*
X45116000Y-82804000D03*
X47116000Y-82804000D03*
X49116000Y-82804000D03*
X51116000Y-82804000D03*
X53116000Y-82804000D03*
X53116000Y-68804000D03*
X51116000Y-68804000D03*
X49116000Y-68804000D03*
X47116000Y-68804000D03*
X45116000Y-68804000D03*
X43116000Y-68804000D03*
X41116000Y-68804000D03*
X39116000Y-68804000D03*
D13*
X54116000Y-80788000D03*
X54116000Y-78788000D03*
X54116000Y-76788000D03*
X54116000Y-74788000D03*
X54116000Y-72788000D03*
X54116000Y-70788000D03*
D14*
X68810000Y-60960000D03*
X65810000Y-60960000D03*
D10*
G36*
X84495472Y-72464899D02*
X83364101Y-71333528D01*
X84071208Y-70626421D01*
X85202579Y-71757792D01*
X84495472Y-72464899D01*
X84495472Y-72464899D01*
G37*
G36*
X86616792Y-70343579D02*
X85485421Y-69212208D01*
X86192528Y-68505101D01*
X87323899Y-69636472D01*
X86616792Y-70343579D01*
X86616792Y-70343579D01*
G37*
G36*
X77637472Y-65606899D02*
X76506101Y-64475528D01*
X77213208Y-63768421D01*
X78344579Y-64899792D01*
X77637472Y-65606899D01*
X77637472Y-65606899D01*
G37*
G36*
X79758792Y-63485579D02*
X78627421Y-62354208D01*
X79334528Y-61647101D01*
X80465899Y-62778472D01*
X79758792Y-63485579D01*
X79758792Y-63485579D01*
G37*
D14*
X56920000Y-67564000D03*
X59920000Y-67564000D03*
D15*
X78486000Y-93956000D03*
X78486000Y-90956000D03*
D14*
X43410000Y-59690000D03*
X40410000Y-59690000D03*
X43410000Y-64262000D03*
X40410000Y-64262000D03*
X65810000Y-58674000D03*
X68810000Y-58674000D03*
D15*
X53213000Y-88685500D03*
X53213000Y-85685500D03*
D14*
X65810000Y-56388000D03*
X68810000Y-56388000D03*
D10*
G36*
X63298101Y-84114472D02*
X64429472Y-82983101D01*
X65136579Y-83690208D01*
X64005208Y-84821579D01*
X63298101Y-84114472D01*
X63298101Y-84114472D01*
G37*
G36*
X65419421Y-86235792D02*
X66550792Y-85104421D01*
X67257899Y-85811528D01*
X66126528Y-86942899D01*
X65419421Y-86235792D01*
X65419421Y-86235792D01*
G37*
D14*
X65810000Y-63246000D03*
X68810000Y-63246000D03*
X59920000Y-70358000D03*
X56920000Y-70358000D03*
D10*
G36*
X77002472Y-87450899D02*
X75871101Y-86319528D01*
X76578208Y-85612421D01*
X77709579Y-86743792D01*
X77002472Y-87450899D01*
X77002472Y-87450899D01*
G37*
G36*
X79123792Y-85329579D02*
X77992421Y-84198208D01*
X78699528Y-83491101D01*
X79830899Y-84622472D01*
X79123792Y-85329579D01*
X79123792Y-85329579D01*
G37*
D16*
X82550000Y-102944000D03*
X82550000Y-105844000D03*
X78486000Y-99748000D03*
X78486000Y-96848000D03*
D17*
X100404000Y-41402000D03*
X103304000Y-41402000D03*
X115898000Y-47244000D03*
X118798000Y-47244000D03*
X100764000Y-104648000D03*
X97864000Y-104648000D03*
X118798000Y-106172000D03*
X115898000Y-106172000D03*
D16*
X61722000Y-51742000D03*
X61722000Y-48842000D03*
D17*
X68633000Y-53975000D03*
X65733000Y-53975000D03*
D16*
X50038000Y-48842000D03*
X50038000Y-51742000D03*
X54102000Y-48842000D03*
X54102000Y-51742000D03*
D10*
G36*
X79076812Y-77067134D02*
X79465720Y-77456042D01*
X78405060Y-78516702D01*
X78016152Y-78127794D01*
X79076812Y-77067134D01*
X79076812Y-77067134D01*
G37*
G36*
X78511126Y-76501449D02*
X78900034Y-76890357D01*
X77839374Y-77951017D01*
X77450466Y-77562109D01*
X78511126Y-76501449D01*
X78511126Y-76501449D01*
G37*
G36*
X77945441Y-75935764D02*
X78334349Y-76324672D01*
X77273689Y-77385332D01*
X76884781Y-76996424D01*
X77945441Y-75935764D01*
X77945441Y-75935764D01*
G37*
G36*
X77379756Y-75370078D02*
X77768664Y-75758986D01*
X76708004Y-76819646D01*
X76319096Y-76430738D01*
X77379756Y-75370078D01*
X77379756Y-75370078D01*
G37*
G36*
X76814070Y-74804393D02*
X77202978Y-75193301D01*
X76142318Y-76253961D01*
X75753410Y-75865053D01*
X76814070Y-74804393D01*
X76814070Y-74804393D01*
G37*
G36*
X76248385Y-74238707D02*
X76637293Y-74627615D01*
X75576633Y-75688275D01*
X75187725Y-75299367D01*
X76248385Y-74238707D01*
X76248385Y-74238707D01*
G37*
G36*
X75682699Y-73673022D02*
X76071607Y-74061930D01*
X75010947Y-75122590D01*
X74622039Y-74733682D01*
X75682699Y-73673022D01*
X75682699Y-73673022D01*
G37*
G36*
X75117014Y-73107336D02*
X75505922Y-73496244D01*
X74445262Y-74556904D01*
X74056354Y-74167996D01*
X75117014Y-73107336D01*
X75117014Y-73107336D01*
G37*
G36*
X74551328Y-72541651D02*
X74940236Y-72930559D01*
X73879576Y-73991219D01*
X73490668Y-73602311D01*
X74551328Y-72541651D01*
X74551328Y-72541651D01*
G37*
G36*
X73985643Y-71975966D02*
X74374551Y-72364874D01*
X73313891Y-73425534D01*
X72924983Y-73036626D01*
X73985643Y-71975966D01*
X73985643Y-71975966D01*
G37*
G36*
X73419958Y-71410280D02*
X73808866Y-71799188D01*
X72748206Y-72859848D01*
X72359298Y-72470940D01*
X73419958Y-71410280D01*
X73419958Y-71410280D01*
G37*
G36*
X69955134Y-71799188D02*
X70344042Y-71410280D01*
X71404702Y-72470940D01*
X71015794Y-72859848D01*
X69955134Y-71799188D01*
X69955134Y-71799188D01*
G37*
G36*
X69389449Y-72364874D02*
X69778357Y-71975966D01*
X70839017Y-73036626D01*
X70450109Y-73425534D01*
X69389449Y-72364874D01*
X69389449Y-72364874D01*
G37*
G36*
X68823764Y-72930559D02*
X69212672Y-72541651D01*
X70273332Y-73602311D01*
X69884424Y-73991219D01*
X68823764Y-72930559D01*
X68823764Y-72930559D01*
G37*
G36*
X68258078Y-73496244D02*
X68646986Y-73107336D01*
X69707646Y-74167996D01*
X69318738Y-74556904D01*
X68258078Y-73496244D01*
X68258078Y-73496244D01*
G37*
G36*
X67692393Y-74061930D02*
X68081301Y-73673022D01*
X69141961Y-74733682D01*
X68753053Y-75122590D01*
X67692393Y-74061930D01*
X67692393Y-74061930D01*
G37*
G36*
X67126707Y-74627615D02*
X67515615Y-74238707D01*
X68576275Y-75299367D01*
X68187367Y-75688275D01*
X67126707Y-74627615D01*
X67126707Y-74627615D01*
G37*
G36*
X66561022Y-75193301D02*
X66949930Y-74804393D01*
X68010590Y-75865053D01*
X67621682Y-76253961D01*
X66561022Y-75193301D01*
X66561022Y-75193301D01*
G37*
G36*
X65995336Y-75758986D02*
X66384244Y-75370078D01*
X67444904Y-76430738D01*
X67055996Y-76819646D01*
X65995336Y-75758986D01*
X65995336Y-75758986D01*
G37*
G36*
X65429651Y-76324672D02*
X65818559Y-75935764D01*
X66879219Y-76996424D01*
X66490311Y-77385332D01*
X65429651Y-76324672D01*
X65429651Y-76324672D01*
G37*
G36*
X64863966Y-76890357D02*
X65252874Y-76501449D01*
X66313534Y-77562109D01*
X65924626Y-77951017D01*
X64863966Y-76890357D01*
X64863966Y-76890357D01*
G37*
G36*
X64298280Y-77456042D02*
X64687188Y-77067134D01*
X65747848Y-78127794D01*
X65358940Y-78516702D01*
X64298280Y-77456042D01*
X64298280Y-77456042D01*
G37*
G36*
X65358940Y-79471298D02*
X65747848Y-79860206D01*
X64687188Y-80920866D01*
X64298280Y-80531958D01*
X65358940Y-79471298D01*
X65358940Y-79471298D01*
G37*
G36*
X65924626Y-80036983D02*
X66313534Y-80425891D01*
X65252874Y-81486551D01*
X64863966Y-81097643D01*
X65924626Y-80036983D01*
X65924626Y-80036983D01*
G37*
G36*
X66490311Y-80602668D02*
X66879219Y-80991576D01*
X65818559Y-82052236D01*
X65429651Y-81663328D01*
X66490311Y-80602668D01*
X66490311Y-80602668D01*
G37*
G36*
X67055996Y-81168354D02*
X67444904Y-81557262D01*
X66384244Y-82617922D01*
X65995336Y-82229014D01*
X67055996Y-81168354D01*
X67055996Y-81168354D01*
G37*
G36*
X67621682Y-81734039D02*
X68010590Y-82122947D01*
X66949930Y-83183607D01*
X66561022Y-82794699D01*
X67621682Y-81734039D01*
X67621682Y-81734039D01*
G37*
G36*
X68187367Y-82299725D02*
X68576275Y-82688633D01*
X67515615Y-83749293D01*
X67126707Y-83360385D01*
X68187367Y-82299725D01*
X68187367Y-82299725D01*
G37*
G36*
X68753053Y-82865410D02*
X69141961Y-83254318D01*
X68081301Y-84314978D01*
X67692393Y-83926070D01*
X68753053Y-82865410D01*
X68753053Y-82865410D01*
G37*
G36*
X69318738Y-83431096D02*
X69707646Y-83820004D01*
X68646986Y-84880664D01*
X68258078Y-84491756D01*
X69318738Y-83431096D01*
X69318738Y-83431096D01*
G37*
G36*
X69884424Y-83996781D02*
X70273332Y-84385689D01*
X69212672Y-85446349D01*
X68823764Y-85057441D01*
X69884424Y-83996781D01*
X69884424Y-83996781D01*
G37*
G36*
X70450109Y-84562466D02*
X70839017Y-84951374D01*
X69778357Y-86012034D01*
X69389449Y-85623126D01*
X70450109Y-84562466D01*
X70450109Y-84562466D01*
G37*
G36*
X71015794Y-85128152D02*
X71404702Y-85517060D01*
X70344042Y-86577720D01*
X69955134Y-86188812D01*
X71015794Y-85128152D01*
X71015794Y-85128152D01*
G37*
G36*
X72359298Y-85517060D02*
X72748206Y-85128152D01*
X73808866Y-86188812D01*
X73419958Y-86577720D01*
X72359298Y-85517060D01*
X72359298Y-85517060D01*
G37*
G36*
X72924983Y-84951374D02*
X73313891Y-84562466D01*
X74374551Y-85623126D01*
X73985643Y-86012034D01*
X72924983Y-84951374D01*
X72924983Y-84951374D01*
G37*
G36*
X73490668Y-84385689D02*
X73879576Y-83996781D01*
X74940236Y-85057441D01*
X74551328Y-85446349D01*
X73490668Y-84385689D01*
X73490668Y-84385689D01*
G37*
G36*
X74056354Y-83820004D02*
X74445262Y-83431096D01*
X75505922Y-84491756D01*
X75117014Y-84880664D01*
X74056354Y-83820004D01*
X74056354Y-83820004D01*
G37*
G36*
X74622039Y-83254318D02*
X75010947Y-82865410D01*
X76071607Y-83926070D01*
X75682699Y-84314978D01*
X74622039Y-83254318D01*
X74622039Y-83254318D01*
G37*
G36*
X75187725Y-82688633D02*
X75576633Y-82299725D01*
X76637293Y-83360385D01*
X76248385Y-83749293D01*
X75187725Y-82688633D01*
X75187725Y-82688633D01*
G37*
G36*
X75753410Y-82122947D02*
X76142318Y-81734039D01*
X77202978Y-82794699D01*
X76814070Y-83183607D01*
X75753410Y-82122947D01*
X75753410Y-82122947D01*
G37*
G36*
X76319096Y-81557262D02*
X76708004Y-81168354D01*
X77768664Y-82229014D01*
X77379756Y-82617922D01*
X76319096Y-81557262D01*
X76319096Y-81557262D01*
G37*
G36*
X76884781Y-80991576D02*
X77273689Y-80602668D01*
X78334349Y-81663328D01*
X77945441Y-82052236D01*
X76884781Y-80991576D01*
X76884781Y-80991576D01*
G37*
G36*
X77450466Y-80425891D02*
X77839374Y-80036983D01*
X78900034Y-81097643D01*
X78511126Y-81486551D01*
X77450466Y-80425891D01*
X77450466Y-80425891D01*
G37*
G36*
X78016152Y-79860206D02*
X78405060Y-79471298D01*
X79465720Y-80531958D01*
X79076812Y-80920866D01*
X78016152Y-79860206D01*
X78016152Y-79860206D01*
G37*
D18*
X61766000Y-64423000D03*
X61766000Y-63773000D03*
X61766000Y-63123000D03*
X61766000Y-62473000D03*
X61766000Y-61823000D03*
X61766000Y-61173000D03*
X61766000Y-60523000D03*
X61766000Y-59873000D03*
X61766000Y-59223000D03*
X61766000Y-58573000D03*
X61766000Y-57923000D03*
X61766000Y-57273000D03*
X61766000Y-56623000D03*
X61766000Y-55973000D03*
X54566000Y-55973000D03*
X54566000Y-56623000D03*
X54566000Y-57273000D03*
X54566000Y-57923000D03*
X54566000Y-58573000D03*
X54566000Y-59223000D03*
X54566000Y-59873000D03*
X54566000Y-60523000D03*
X54566000Y-61173000D03*
X54566000Y-61823000D03*
X54566000Y-62473000D03*
X54566000Y-63123000D03*
X54566000Y-63773000D03*
X54566000Y-64423000D03*
M02*
