M48
;DRILL file {KiCad 4.0.7} date 02/25/18 11:04:55
;FORMAT={-:-/ absolute / metric / decimal}
FMAT,2
METRIC,TZ
T1C0.400
T2C0.800
T3C0.900
T4C1.000
T5C1.100
T6C1.200
T7C1.500
T8C1.520
T9C1.600
%
G90
G05
M71
T1
X34.861Y-85.217
X35.877Y-86.233
X38.291Y-71.31
X38.989Y-108.775
X39.116Y-80.518
X39.497Y-107.759
X40.386Y-71.882
X41.021Y-84.645
X41.846Y-95.059
X41.91Y-73.152
X43.116Y-70.739
X43.497Y-104.267
X44.005Y-77.787
X44.069Y-79.566
X45.021Y-66.23
X45.466Y-105.537
X45.529Y-104.521
X45.593Y-50.101
X45.657Y-107.759
X45.657Y-108.712
X46.101Y-89.789
X46.228Y-94.424
X46.926Y-96.965
X46.926Y-98.615
X47.117Y-70.802
X47.117Y-84.645
X47.752Y-96.965
X47.752Y-98.489
X49.085Y-84.645
X49.212Y-80.962
X49.974Y-53.276
X51.054Y-84.709
X51.308Y-54.356
X51.498Y-71.501
X51.498Y-72.834
X51.562Y-96.965
X51.625Y-78.803
X51.689Y-98.361
X52.07Y-90.043
X52.324Y-62.928
X52.387Y-64.008
X52.578Y-93.98
X53.149Y-87.566
X53.975Y-47.688
X55.118Y-83.185
X55.944Y-87.566
X56.07Y-74.803
X56.07Y-76.835
X56.388Y-60.134
X56.578Y-56.07
X57.15Y-61.785
X57.658Y-63.881
X58.483Y-59.69
X58.547Y-90.742
X58.61Y-99.441
X59.118Y-57.087
X59.436Y-90.742
X59.499Y-98.234
X59.69Y-48.895
X59.944Y-56.325
X59.944Y-78.422
X60.261Y-87.82
X60.389Y-82.55
X61.468Y-65.786
X61.531Y-70.929
X61.722Y-53.784
X62.23Y-90.805
X62.42Y-92.837
X63.373Y-61.658
X63.373Y-88.201
X63.436Y-60.77
X63.5Y-63.944
X63.563Y-59.944
X63.563Y-64.96
X63.881Y-81.216
X64.072Y-57.023
X64.453Y-76.073
X64.643Y-62.23
X65.151Y-82.359
X65.151Y-86.995
X65.215Y-73.596
X66.739Y-39.878
X66.992Y-69.787
X67.056Y-66.23
X67.056Y-73.152
X67.31Y-63.754
X67.31Y-68.897
X67.627Y-80.645
X68.199Y-78.359
X68.58Y-77.089
X69.215Y-81.153
X69.469Y-70.739
X70.167Y-80.2
X70.548Y-67.627
X70.675Y-75.501
X70.802Y-78.105
X71.628Y-76.644
X71.691Y-59.944
X71.691Y-66.865
X72.009Y-60.706
X72.898Y-61.277
X73.025Y-70.421
X74.231Y-80.645
X74.358Y-93.726
X74.486Y-96.393
X74.676Y-76.073
X75.184Y-63.309
X75.565Y-78.168
X75.629Y-87.058
X75.819Y-85.217
X77.47Y-79.184
X78.803Y-75.501
X79.121Y-76.327
X79.311Y-82.233
X79.438Y-41.91
X80.073Y-90.742
X81.852Y-79.947
X82.55Y-94.361
X83.757Y-76.772
X86.741Y-93.091
X87.312Y-53.53
X87.884Y-92.392
X90.805Y-66.929
X90.805Y-69.469
X91.059Y-99.695
X91.757Y-87.63
X97.79Y-81.852
X105.727Y-102.997
X110.617Y-59.245
T2
X48.514Y-57.658
X48.514Y-62.538
X50.038Y-91.44
X50.038Y-99.06
X53.594Y-91.44
X53.594Y-99.06
X57.15Y-91.44
X57.15Y-99.06
X60.706Y-91.44
X60.706Y-99.06
X64.262Y-91.44
X64.262Y-99.06
X67.818Y-91.44
X67.818Y-99.06
X71.374Y-91.44
X71.374Y-99.06
X74.93Y-91.44
X74.93Y-99.06
X76.432Y-69.066
X79.883Y-72.517
X91.694Y-55.245
X91.694Y-57.745
X98.044Y-45.974
X98.044Y-100.584
X100.584Y-45.974
X100.584Y-100.584
X103.124Y-45.974
X103.124Y-100.584
X105.664Y-47.752
X105.664Y-98.806
X113.284Y-47.752
X113.284Y-98.806
X115.824Y-41.656
X115.824Y-102.108
X118.364Y-41.656
X118.364Y-102.108
X120.904Y-41.656
X120.904Y-102.108
X123.444Y-42.164
X123.444Y-100.584
X131.064Y-42.164
X131.064Y-100.584
T3
X33.324Y-38.286
X35.179Y-50.546
X35.824Y-36.766
X36.449Y-48.006
X37.719Y-50.546
X38.989Y-48.006
X40.259Y-50.546
X41.529Y-48.006
X42.799Y-50.546
X43.424Y-38.286
X44.069Y-48.006
X45.924Y-36.766
T4
X41.656Y-110.49
X41.656Y-113.03
X44.196Y-110.49
X44.196Y-113.03
X46.736Y-110.49
X46.736Y-113.03
X49.276Y-110.49
X49.276Y-113.03
X50.292Y-102.87
X50.292Y-105.41
X51.816Y-110.49
X51.816Y-113.03
X52.832Y-43.942
X52.832Y-102.87
X52.832Y-105.41
X54.356Y-110.49
X54.356Y-113.03
X54.532Y-43.942
X55.372Y-102.87
X55.372Y-105.41
X56.232Y-43.942
X56.896Y-110.49
X56.896Y-113.03
X57.912Y-102.87
X57.912Y-105.41
X57.932Y-43.942
X59.436Y-110.49
X59.436Y-113.03
X59.632Y-43.942
X60.452Y-102.87
X60.452Y-105.41
X61.976Y-110.49
X61.976Y-113.03
X62.992Y-102.87
X62.992Y-105.41
X64.516Y-110.49
X64.516Y-113.03
X65.532Y-102.87
X65.532Y-105.41
X67.056Y-110.49
X67.056Y-113.03
X68.072Y-102.87
X68.072Y-105.41
X69.596Y-110.49
X69.596Y-113.03
X70.358Y-44.276
X70.358Y-49.276
X70.612Y-102.87
X70.612Y-105.41
X72.136Y-110.49
X72.136Y-113.03
X73.152Y-102.87
X73.152Y-105.41
X74.676Y-110.49
X74.676Y-113.03
X75.692Y-102.87
X75.692Y-105.41
X77.216Y-110.49
X77.216Y-113.03
X78.232Y-102.87
X78.232Y-105.41
X79.756Y-110.49
X79.756Y-113.03
X82.296Y-110.49
X82.296Y-113.03
X84.074Y-44.276
X84.074Y-49.276
X84.836Y-110.49
X84.836Y-113.03
X87.376Y-110.49
X87.376Y-113.03
X89.916Y-110.49
X89.916Y-113.03
X90.043Y-91.186
X90.043Y-93.726
X90.043Y-96.266
X92.456Y-110.49
X92.456Y-113.03
X94.107Y-91.186
X94.107Y-93.726
X94.107Y-96.266
X94.996Y-110.49
X94.996Y-113.03
T5
X32.512Y-57.254
X32.512Y-63.754
X37.012Y-57.254
X37.012Y-63.754
X81.534Y-38.1
X86.106Y-101.346
X86.106Y-105.846
X91.694Y-38.1
X92.606Y-101.346
X92.606Y-105.846
T6
X37.846Y-88.9
X37.846Y-91.44
X40.386Y-88.9
X40.386Y-91.44
X42.926Y-88.9
X42.926Y-91.44
X90.932Y-77.343
X90.932Y-79.883
X90.932Y-82.423
X93.472Y-77.343
X93.472Y-79.883
X93.472Y-82.423
T7
X99.918Y-56.126
X99.918Y-68.326
X99.918Y-78.232
X99.918Y-90.432
X105.918Y-70.326
X105.918Y-76.232
X111.918Y-56.126
X111.918Y-68.326
X111.918Y-78.232
X111.918Y-90.432
X117.698Y-58.158
X117.698Y-70.358
X117.698Y-80.264
X117.698Y-92.464
X123.698Y-72.358
X123.698Y-78.264
X129.698Y-58.158
X129.698Y-70.358
X129.698Y-80.264
X129.698Y-92.464
T8
X50.8Y-34.544
X55.88Y-34.544
X60.96Y-34.544
X66.548Y-34.544
X71.628Y-34.544
X76.708Y-34.544
X100.838Y-34.544
X100.838Y-112.014
X105.918Y-34.544
X105.918Y-112.014
X110.998Y-34.544
X110.998Y-112.014
X118.618Y-34.544
X118.618Y-112.014
X123.698Y-34.544
X123.698Y-112.014
X128.778Y-34.544
X128.778Y-112.014
T9
X31.824Y-44.706
X47.424Y-44.706
T0
M30
